<svg width="38" height="39" viewBox="0 0 38 39" fill="none" xmlns="http://www.w3.org/2000/svg">
<circle cx="19.5" cy="19.5" r="16" stroke="#593500" stroke-width="5"/>
<path d="M19.5001 35.6129C10.6012 35.6129 3.38721 28.3989 3.38721 19.5C3.38721 10.6011 10.6012 3.38708 19.5001 3.38708" stroke="#FF9800" stroke-width="5"/>
<path d="M13.9212 23.0895C13.4695 23.0895 13.0668 23.0064 12.7131 22.8402C12.3615 22.674 12.0824 22.445 11.8757 22.1531C11.669 21.8612 11.5614 21.5266 11.5529 21.1495H12.8952C12.9102 21.4031 13.0167 21.6087 13.2148 21.7663C13.413 21.924 13.6484 22.0028 13.9212 22.0028C14.1385 22.0028 14.3303 21.9549 14.4964 21.859C14.6648 21.761 14.7958 21.6257 14.8896 21.4531C14.9854 21.2784 15.0334 21.0781 15.0334 20.8523C15.0334 20.6222 14.9844 20.4197 14.8864 20.245C14.7905 20.0703 14.6573 19.9339 14.4869 19.8359C14.3164 19.7379 14.1214 19.6879 13.902 19.6857C13.7102 19.6857 13.5238 19.7251 13.3427 19.804C13.1637 19.8828 13.0241 19.9904 12.924 20.1268L11.6935 19.9062L12.0036 16.4545H16.005V17.5859H13.1445L12.9751 19.2255H13.0135C13.1286 19.0636 13.3022 18.9293 13.5344 18.8228C13.7667 18.7163 14.0266 18.663 14.3143 18.663C14.7085 18.663 15.06 18.7557 15.369 18.9411C15.6779 19.1264 15.9219 19.381 16.1009 19.7049C16.2798 20.0266 16.3683 20.3974 16.3661 20.8171C16.3683 21.2582 16.266 21.6502 16.0593 21.9933C15.8548 22.3342 15.5682 22.6026 15.1996 22.7987C14.8331 22.9925 14.407 23.0895 13.9212 23.0895ZM19.8977 23.1438C19.348 23.1417 18.875 23.0064 18.4787 22.7379C18.0845 22.4695 17.7809 22.0806 17.5678 21.5714C17.3569 21.0621 17.2525 20.4496 17.2546 19.7337C17.2546 19.0199 17.3601 18.4116 17.571 17.9087C17.7841 17.4059 18.0877 17.0234 18.4819 16.7614C18.8782 16.4972 19.3501 16.3651 19.8977 16.3651C20.4453 16.3651 20.9162 16.4972 21.3104 16.7614C21.7067 17.0256 22.0114 17.4091 22.2244 17.9119C22.4375 18.4126 22.543 19.0199 22.5408 19.7337C22.5408 20.4517 22.4343 21.0653 22.2212 21.5746C22.0103 22.0838 21.7077 22.4727 21.3136 22.7411C20.9194 23.0096 20.4474 23.1438 19.8977 23.1438ZM19.8977 21.9964C20.2727 21.9964 20.5721 21.8079 20.7958 21.4308C21.0195 21.0536 21.1303 20.4879 21.1282 19.7337C21.1282 19.2372 21.0771 18.8239 20.9748 18.4936C20.8746 18.1634 20.7319 17.9151 20.5465 17.7489C20.3633 17.5827 20.147 17.4996 19.8977 17.4996C19.5249 17.4996 19.2266 17.6861 19.0028 18.0589C18.7791 18.4318 18.6662 18.9901 18.6641 19.7337C18.6641 20.2365 18.7141 20.6562 18.8143 20.9929C18.9165 21.3274 19.0604 21.5788 19.2457 21.7472C19.4311 21.9134 19.6484 21.9964 19.8977 21.9964ZM27.1104 21.7727V21.4276C27.1104 21.1655 27.1657 20.9247 27.2765 20.7053C27.3895 20.4837 27.5525 20.3068 27.7655 20.1747C27.9807 20.0405 28.2428 19.9734 28.5518 19.9734C28.865 19.9734 29.1281 20.0394 29.3412 20.1715C29.5564 20.3036 29.7183 20.4805 29.827 20.7021C29.9378 20.9215 29.9932 21.1634 29.9932 21.4276V21.7727C29.9932 22.0348 29.9378 22.2766 29.827 22.4982C29.7162 22.7177 29.5532 22.8935 29.338 23.0256C29.1228 23.1598 28.8607 23.2269 28.5518 23.2269C28.2385 23.2269 27.9754 23.1598 27.7623 23.0256C27.5493 22.8935 27.3873 22.7177 27.2765 22.4982C27.1657 22.2766 27.1104 22.0348 27.1104 21.7727ZM28.0404 21.4276V21.7727C28.0404 21.924 28.0766 22.0668 28.1491 22.201C28.2236 22.3352 28.3579 22.4023 28.5518 22.4023C28.7457 22.4023 28.8778 22.3363 28.9481 22.2042C29.0205 22.0721 29.0567 21.9283 29.0567 21.7727V21.4276C29.0567 21.272 29.0226 21.1271 28.9545 20.9929C28.8863 20.8587 28.752 20.7915 28.5518 20.7915C28.36 20.7915 28.2268 20.8587 28.1523 20.9929C28.0777 21.1271 28.0404 21.272 28.0404 21.4276ZM23.7513 18.027V17.6818C23.7513 17.4176 23.8078 17.1758 23.9207 16.9563C24.0336 16.7347 24.1966 16.5579 24.4097 16.4258C24.6249 16.2937 24.8849 16.2276 25.1895 16.2276C25.5049 16.2276 25.7691 16.2937 25.9822 16.4258C26.1952 16.5579 26.3572 16.7347 26.468 16.9563C26.5787 17.1758 26.6341 17.4176 26.6341 17.6818V18.027C26.6341 18.2912 26.5777 18.533 26.4648 18.7525C26.354 18.9719 26.191 19.1477 25.9758 19.2798C25.7627 19.4098 25.5006 19.4748 25.1895 19.4748C24.8785 19.4748 24.6153 19.4087 24.4001 19.2766C24.1871 19.1424 24.0251 18.9666 23.9143 18.7493C23.8057 18.5298 23.7513 18.2891 23.7513 18.027ZM24.6878 17.6818V18.027C24.6878 18.1825 24.724 18.3263 24.7964 18.4585C24.871 18.5906 25.002 18.6566 25.1895 18.6566C25.3856 18.6566 25.5187 18.5906 25.589 18.4585C25.6615 18.3263 25.6977 18.1825 25.6977 18.027V17.6818C25.6977 17.5263 25.6636 17.3814 25.5954 17.2472C25.5273 17.1129 25.392 17.0458 25.1895 17.0458C24.9999 17.0458 24.8689 17.114 24.7964 17.2504C24.724 17.3867 24.6878 17.5305 24.6878 17.6818ZM24.1732 23L28.6732 16.4545H29.5106L25.0106 23H24.1732Z" fill="#593500"/>
</svg>
