<svg width="49" height="49" viewBox="0 0 49 49" fill="none" xmlns="http://www.w3.org/2000/svg">
<circle cx="24.5" cy="24.5" r="23.5" stroke="#FF9800" stroke-width="2"/>
<path fill-rule="evenodd" clip-rule="evenodd" d="M28 19C28 21.2091 26.2091 23 24 23C21.7909 23 20 21.2091 20 19C20 16.7909 21.7909 15 24 15C26.2091 15 28 16.7909 28 19ZM26 19C26 20.1046 25.1046 21 24 21C22.8954 21 22 20.1046 22 19C22 17.8954 22.8954 17 24 17C25.1046 17 26 17.8954 26 19Z" fill="#FF9800"/>
<path d="M28 27C28 26.4477 27.5523 26 27 26H21C20.4477 26 20 26.4477 20 27V33H18V27C18 25.3431 19.3431 24 21 24H27C28.6569 24 30 25.3431 30 27V33H28V27Z" fill="#FF9800"/>
</svg>
