<svg width="49" height="49" viewBox="0 0 49 49" fill="none" xmlns="http://www.w3.org/2000/svg">
<path fill-rule="evenodd" clip-rule="evenodd" d="M20 24C22.2091 24 24 22.2091 24 20C24 17.7909 22.2091 16 20 16C17.7909 16 16 17.7909 16 20C16 22.2091 17.7909 24 20 24ZM20 22C21.1046 22 22 21.1046 22 20C22 18.8954 21.1046 18 20 18C18.8954 18 18 18.8954 18 20C18 21.1046 18.8954 22 20 22Z" fill="#FF9800"/>
<path d="M23 27C23.5523 27 24 27.4477 24 28V34H26V28C26 26.3431 24.6569 25 23 25H17C15.3431 25 14 26.3431 14 28V34H16V28C16 27.4477 16.4477 27 17 27H23Z" fill="#FF9800"/>
<path d="M30 20H32V22H34V24H32V26H30V24H28V22H30V20Z" fill="#FF9800"/>
<circle cx="24.5" cy="24.5" r="23.5" stroke="#FF9800" stroke-width="2"/>
</svg>
