<svg width="29" height="26" viewBox="0 0 29 26" fill="none" xmlns="http://www.w3.org/2000/svg">
<path d="M6.27477 23.2847C4.17252 21.1825 2.87225 18.2783 2.87225 15.0704C2.87225 8.65474 8.0732 3.45379 14.4889 3.45379C20.9046 3.45379 26.1056 8.65474 26.1056 15.0704C26.1056 18.2783 24.8053 21.1824 22.7031 23.2846L24.5285 25.11C27.0979 22.5407 28.687 18.9911 28.687 15.0704C28.687 7.22903 22.3303 0.872314 14.4889 0.872314C6.64749 0.872314 0.290771 7.22903 0.290771 15.0704C0.290771 18.9912 1.87998 22.5408 4.44939 25.1101L6.27477 23.2847Z" fill="#FF9800"/>
<path d="M20.8778 21.4592C22.5128 19.8242 23.5241 17.5654 23.5241 15.0704C23.5241 10.0805 19.4789 6.03527 14.4889 6.03527C9.49891 6.03527 5.45373 10.0805 5.45373 15.0704C5.45373 17.5655 6.46506 19.8243 8.10015 21.4594L9.92553 19.634C8.75759 18.4661 8.0352 16.8526 8.0352 15.0704C8.0352 11.5062 10.9246 8.61675 14.4889 8.61675C18.0532 8.61675 20.9426 11.5062 20.9426 15.0704C20.9426 16.8526 20.2203 18.466 19.0524 19.6339L20.8778 21.4592Z" fill="#FF9800"/>
<path d="M17.227 17.8085C17.9277 17.1078 18.3611 16.1397 18.3611 15.0704C18.3611 12.9319 16.6275 11.1982 14.4889 11.1982C12.3503 11.1982 10.6167 12.9319 10.6167 15.0704C10.6167 16.1398 11.0501 17.1079 11.7509 17.8086L13.5763 15.9832C13.3427 15.7496 13.1982 15.4269 13.1982 15.0704C13.1982 14.3576 13.776 13.7797 14.4889 13.7797C15.2018 13.7797 15.7796 14.3576 15.7796 15.0704C15.7796 15.4269 15.6352 15.7495 15.4016 15.9831L17.227 17.8085Z" fill="#FF9800"/>
</svg>
