<svg width="29" height="29" viewBox="0 0 29 29" fill="none" xmlns="http://www.w3.org/2000/svg">
<path fill-rule="evenodd" clip-rule="evenodd" d="M23.5241 2.87225H5.45373C4.02802 2.87225 2.87225 4.02802 2.87225 5.45373V23.5241C2.87225 24.9498 4.02802 26.1056 5.45373 26.1056H23.5241C24.9498 26.1056 26.1056 24.9498 26.1056 23.5241V5.45373C26.1056 4.02802 24.9498 2.87225 23.5241 2.87225ZM5.45373 0.290771C2.60231 0.290771 0.290771 2.60231 0.290771 5.45373V23.5241C0.290771 26.3755 2.60231 28.687 5.45373 28.687H23.5241C26.3755 28.687 28.687 26.3755 28.687 23.5241V5.45373C28.687 2.60231 26.3755 0.290771 23.5241 0.290771H5.45373Z" fill="#FF9800"/>
<path d="M19.6519 14.4889L11.9074 20.078V8.89984L19.6519 14.4889Z" fill="#FF9800"/>
</svg>
